PathFileType	4	(X/Y/Z)	/Users/itak/Documents/Research/Walk-IL/dataset/trc/00274_00010.trc
DataRate	CameraRate	NumFrames	NumMarkers	Units	OrigDataRate	OrigDataStartFrame	OrigNumFrames
100.000000	100.000000	4	53	mm	100.000000	287	575
Frame#	Time	RPSI			LPSI			L3			STRN			T10			C7			CLAV			RBAK			LBAK			LSHO			LUPA			LAEL			LAOL			LWTS			LWPS			LFRA			LIFD			LHPS			LHTS			RSHO			RUPA			RAEL			RAOL			RWTS			RWPS			RFRA			RIFD			RHTS			RHPS			RBHD			LFHD			RFHD			LBHD			LHIP			RHIP			RASI			LASI			LKNE			LTHI			LANK			LTIP			LTOE			LMT1			LMT5			LHEE			RKNE			RTHI			RANK			RTIP			RTOE			RMT1			RMT5			RHEE			
		X1	Y1	Z1	X2	Y2	Z2	X3	Y3	Z3	X4	Y4	Z4	X5	Y5	Z5	X6	Y6	Z6	X7	Y7	Z7	X8	Y8	Z8	X9	Y9	Z9	X10	Y10	Z10	X11	Y11	Z11	X12	Y12	Z12	X13	Y13	Z13	X14	Y14	Z14	X15	Y15	Z15	X16	Y16	Z16	X17	Y17	Z17	X18	Y18	Z18	X19	Y19	Z19	X20	Y20	Z20	X21	Y21	Z21	X22	Y22	Z22	X23	Y23	Z23	X24	Y24	Z24	X25	Y25	Z25	X26	Y26	Z26	X27	Y27	Z27	X28	Y28	Z28	X29	Y29	Z29	X30	Y30	Z30	X31	Y31	Z31	X32	Y32	Z32	X33	Y33	Z33	X34	Y34	Z34	X35	Y35	Z35	X36	Y36	Z36	X37	Y37	Z37	X38	Y38	Z38	X39	Y39	Z39	X40	Y40	Z40	X41	Y41	Z41	X42	Y42	Z42	X43	Y43	Z43	X44	Y44	Z44	X45	Y45	Z45	X46	Y46	Z46	X47	Y47	Z47	X48	Y48	Z48	X49	Y49	Z49	X50	Y50	Z50	X51	Y51	Z51	X52	Y52	Z52	X53	Y53	Z53	

288	2.87	280.8023986816406	977.0027465820312	59.70489501953125	264.9931335449219	976.0453491210938	-114.0709838867188	291.5247192382812	1056.901245117188	-31.58767700195312	550.04296875	1233.361450195312	-52.44574737548828	277.4121398925781	1178	-36.24264907836914	332.370849609375	1419.627319335938	-64.94434356689453	488.9754638671875	1335.203979492188	-56.69923400878906	277.9061889648438	1288.390625	20.00431632995605	315.6080322265625	1379.458618164062	-167.1083221435547	405.9241333007812	1381.035034179688	-218.3565063476562	371.2510681152344	1267.64111328125	-293.1467590332031	349.9945983886719	1069.721313476562	-317.1255798339844	290.3111267089844	1059.192138671875	-253.9821624755859	379.8089294433594	830.8433837890625	-297.2395324707031	337.4897766113281	835.3385009765625	-355.2301635742188	341.1859130859375	966.921142578125	-335.9301452636719	322.5177001953125	651.3448486328125	-309.4552917480469	314.9307861328125	749.6497192382812	-359.5809936523438	368.4504699707031	730.763916015625	-327.4480895996094	402.2780151367188	1403.350219726562	94.15644073486328	394.0947570800781	1349.909301757812	163.7666931152344	361.8427429199219	1093.534057617188	235.5659790039062	329.8255310058594	1077.119995117188	145.7031402587891	460.1370239257812	865.8411254882812	211.3844299316406	413.162353515625	867.9097290039062	281.8444213867188	382.1060791015625	1026.54296875	255.6941833496094	460.5344543457031	681.244873046875	224.2304077148438	484.5890808105469	751.2249755859375	238.7729797363281	433.2789001464844	755.3636474609375	286.386474609375	352.3762817382812	1569.819580078125	4.097326755523682	506.3337097167969	1621.183227539062	-132.9180450439453	513.6902465820312	1624.242431640625	-40.14036178588867	342.7974853515625	1554.651489257812	-142.6301422119141	326.1026611328125	932.9396362304688	-217.9443664550781	397.5136413574219	934.7931518554688	149.9385681152344	505.7470703125	946.9807739257812	66.06906127929688	467.0519104003906	948.3485717773438	-182.3050231933594	443.3835144042969	469.2106323242188	-167.6980438232422	420.120361328125	608.6749877929688	-199.30517578125	324.1230163574219	45.43782806396484	-80.28334808349609	383.2802734375	244.6046447753906	-132.7468566894531	538.6929321289062	32.34088516235352	-38.01134490966797	468.3507995605469	27.14755058288574	4.863703727722168	447.9526977539062	44.86664962768555	-101.1251525878906	283.4694519042969	42.20294570922852	-17.12535095214844	579.329833984375	503.3403015136719	153.0072784423828	507.6169738769531	754.531005859375	152.0242767333984	258.7632751464844	186.7325744628906	165.2580108642578	526.7052001953125	391.2341613769531	150.6916961669922	423.2415771484375	87.43173217773438	114.0092010498047	372.043701171875	108.748161315918	73.58726501464844	340.0053100585938	120.1010055541992	188.6740112304688	215.1185913085938	211.7241821289062	114.3160171508789	
289	2.88	276.2060852050781	977.168701171875	59.56660842895508	260.5508117675781	976.39013671875	-114.3190155029297	286.9563903808594	1056.494995117188	-31.22966194152832	544.3186645507812	1233.490112304688	-53.23830032348633	272.2395324707031	1177.288452148438	-35.57011795043945	326.1335754394531	1419.242065429688	-64.82835388183594	482.8922119140625	1335.076171875	-57.40666580200195	272.4297180175781	1287.872680664062	20.56963729858398	308.7975158691406	1378.814086914062	-166.7244567871094	398.7200927734375	1380.59130859375	-218.6995086669922	362.4232788085938	1267.503662109375	-293.1953430175781	339.0561218261719	1070.02978515625	-317.33447265625	280.1103820800781	1059.77978515625	-253.4036560058594	367.4657592773438	830.9368896484375	-298.4722900390625	324.5078735351562	835.7765502929688	-355.8771362304688	329.1337585449219	967.2411499023438	-336.3221130371094	308.9373779296875	651.8435668945312	-310.2533874511719	301.2762451171875	750.2844848632812	-360.0395812988281	354.9962158203125	730.876708984375	-328.7603149414062	396.9603881835938	1403.278198242188	93.87209320068359	389.3706359863281	1349.84521484375	163.5867462158203	358.9164123535156	1093.384399414062	235.9272918701172	326.5733642578125	1076.53955078125	146.2989044189453	459.1768493652344	866.6337890625	211.5276031494141	412.445068359375	868.2366333007812	282.1896667480469	379.8463134765625	1026.560791015625	256.0530700683594	462.2674255371094	682.08935546875	225.0864562988281	485.3077697753906	752.4799194335938	239.2597045898438	434.0763244628906	756.0780639648438	286.9988098144531	346.2767333984375	1569.75830078125	3.454746246337891	499.8507995605469	1620.892578125	-134.0539245605469	507.4560241699219	1624.151611328125	-41.29059219360352	336.3464965820312	1554.266967773438	-143.2074737548828	321.9740600585938	933.3477783203125	-218.128662109375	392.0868530273438	934.0217895507812	149.7643890380859	501.1598815917969	946.0833740234375	66.47771453857422	462.7618713378906	948.37939453125	-181.9535675048828	440.8136291503906	469.7049560546875	-167.9698181152344	417.0001525878906	609.0921630859375	-199.6997985839844	324.1717224121094	45.31942749023438	-80.42066192626953	382.0636901855469	244.7354431152344	-132.9884643554688	538.6978149414062	32.32956314086914	-38.01522445678711	468.3311767578125	27.10590171813965	4.842915534973145	447.9350891113281	44.82235336303711	-101.1761779785156	283.4462585449219	42.10737991333008	-17.27035713195801	565.1310424804688	498.8358459472656	154.1354370117188	499.9282531738281	751.759521484375	151.8441009521484	234.0868835449219	192.9060211181641	164.3493957519531	508.8660583496094	388.4904174804688	151.4341125488281	394.8237609863281	87.24666595458984	113.1876754760742	344.658203125	111.3564071655273	72.68215179443359	312.6399230957031	123.295539855957	187.7494812011719	191.8554229736328	219.9337310791016	113.3227081298828	
290	2.89	271.5650634765625	977.2544555664062	59.41159439086914	256.149169921875	976.6790771484375	-114.5876235961914	282.3528442382812	1056.000854492188	-30.83136558532715	538.53173828125	1233.580200195312	-53.9687614440918	267.08447265625	1176.51416015625	-34.84391403198242	319.800537109375	1418.783081054688	-64.64585876464844	476.7231750488281	1334.902709960938	-58.07206726074219	266.9026184082031	1287.291381835938	21.21126747131348	301.8606872558594	1378.09326171875	-166.2568359375	391.3641052246094	1380.091796875	-218.9827880859375	353.4611511230469	1267.333374023438	-293.1469116210938	328.0343627929688	1070.3125	-317.3820190429688	269.8118286132812	1060.317626953125	-252.711181640625	355.4259033203125	831.11328125	-299.5300903320312	311.7608032226562	836.1702880859375	-356.3043518066406	317.0901184082031	967.503662109375	-336.5091247558594	296.3272399902344	652.2422485351562	-310.9569091796875	288.1651306152344	750.8171997070312	-360.3067626953125	342.2135620117188	731.1105346679688	-329.9532775878906	391.6221923828125	1403.152709960938	93.62581634521484	384.6978454589844	1349.725952148438	163.4387512207031	356.1466979980469	1093.189453125	236.3309783935547	323.3999328613281	1075.913208007812	146.9605407714844	458.3139343261719	867.3828735351562	211.6238708496094	411.8731079101562	868.5440063476562	282.5228576660156	377.7498474121094	1026.546020507812	256.4296264648438	464.0523681640625	682.9239501953125	225.8821411132812	486.0682373046875	753.6917724609375	239.6558837890625	434.98974609375	756.782958984375	287.5814208984375	340.1673583984375	1569.66064453125	2.863266468048096	493.3396911621094	1620.492065429688	-135.1798706054688	501.2037963867188	1623.955810546875	-42.43034744262695	329.8294982910156	1553.830078125	-143.7333221435547	317.8652648925781	933.7706909179688	-218.33203125	386.5300903320312	933.1689453125	149.6166534423828	496.5103454589844	945.1582641601562	66.97261047363281	458.5256042480469	948.416259765625	-181.5269775390625	438.3705139160156	470.1849060058594	-168.2197875976562	414.0006103515625	609.5010375976562	-200.0758209228516	324.2298583984375	45.1927604675293	-80.573486328125	380.9009094238281	244.8696441650391	-133.2243804931641	538.6973876953125	32.31254959106445	-38.01426315307617	468.2924194335938	27.04156875610352	4.84086799621582	447.9228820800781	44.78801345825195	-101.2313613891602	283.4250793457031	42.03372573852539	-17.43307685852051	550.349365234375	494.2883911132812	155.1648254394531	491.9891662597656	748.8589477539062	151.6543731689453	209.7368469238281	198.6185607910156	163.1546325683594	490.6221923828125	385.704345703125	152.0513153076172	366.5685424804688	86.91045379638672	111.9582214355469	317.4689331054688	113.815055847168	71.41454315185547	285.4991149902344	126.2058334350586	186.4567413330078	168.9863891601562	227.6447143554688	112.0611343383789	
291	2.9	266.8746032714844	977.2764282226562	59.24879455566406	251.7768707275391	976.9218139648438	-114.8669586181641	277.7124328613281	1055.433349609375	-30.39163208007812	532.6738891601562	1233.638549804688	-54.64557266235352	261.927490234375	1175.680053710938	-34.0526237487793	313.357666015625	1418.24951171875	-64.39272308349609	470.461669921875	1334.693481445312	-58.69795989990234	261.3330688476562	1286.64794921875	21.93599700927734	294.7811889648438	1377.298095703125	-165.7037658691406	383.84375	1379.54296875	-219.2026214599609	344.3687744140625	1267.1318359375	-293.0015869140625	316.9481201171875	1070.563110351562	-317.2461853027344	259.4668884277344	1060.794067382812	-251.8669586181641	343.7027893066406	831.3472900390625	-300.4153137207031	299.2530517578125	836.505615234375	-356.5079956054688	305.0908813476562	967.7103271484375	-336.4897766113281	284.6282653808594	652.5239868164062	-311.5698852539062	275.5761108398438	751.2367553710938	-360.3865356445312	330.0833435058594	731.4490966796875	-331.0308227539062	386.261962890625	1402.97802734375	93.41754150390625	380.0675048828125	1349.560546875	163.3191223144531	353.5284118652344	1092.960205078125	236.7836456298828	320.280517578125	1075.262817382812	147.6938629150391	457.5361938476562	868.0983276367188	211.6607513427734	411.4473266601562	868.8458862304688	282.8421325683594	375.815673828125	1026.512939453125	256.8308410644531	465.8326416015625	683.7568969726562	226.5794525146484	486.841552734375	754.8598022460938	239.9308471679688	436.0051574707031	757.4804077148438	288.1146545410156	334.0342712402344	1569.533447265625	2.326260566711426	486.7984008789062	1619.986328125	-136.2860412597656	494.9322204589844	1623.653198242188	-43.54747009277344	323.2402648925781	1553.358764648438	-144.2047119140625	313.7783203125	934.2156982421875	-218.5356292724609	380.8646240234375	932.2493896484375	149.5078582763672	491.7865600585938	944.2112426757812	67.54150390625	454.3255310058594	948.4540405273438	-181.0319061279297	436.0386047363281	470.6562805175781	-168.4303131103516	411.1145324707031	609.90185546875	-200.4208526611328	324.29345703125	45.06471252441406	-80.73925018310547	379.780517578125	245.0102996826172	-133.4457397460938	538.694580078125	32.29124450683594	-38.00708389282227	468.2432556152344	26.96620750427246	4.853410243988037	447.9193420410156	44.76711273193359	-101.2863616943359	283.4084777832031	41.97913360595703	-17.6149787902832	535.0072021484375	489.7552185058594	156.0764465332031	483.7613220214844	745.846435546875	151.48876953125	185.7409820556641	203.8312683105469	161.7123260498047	472.04150390625	382.9113159179688	152.537109375	338.544921875	86.44013977050781	110.3335189819336	290.5556945800781	116.0725555419922	69.79222106933594	258.6599731445312	128.7567443847656	184.8090515136719	146.5259704589844	234.7909698486328	110.5892028808594	
